{
	"asset":{
		"generator":"Khronos glTF Blender I/O v4.5.47",
		"version":"2.0"
	},
	"scene":0,
	"scenes":[
		{
			"name":"Scene",
			"nodes":[
				0
			]
		}
	],
	"nodes":[
		{
			"mesh":0,
			"name":"desk1-pastelblue",
			"rotation":[
				0.7071068286895752,
				0,
				0,
				0.7071068286895752
			],
			"scale":[
				100,
				100,
				100
			]
		}
	],
	"materials":[
		{
			"doubleSided":true,
			"name":"Akzente-blue",
			"pbrMetallicRoughness":{
				"baseColorFactor":[
					0.17467600107192993,
					0.5394560098648071,
					0.9999269843101501,
					1
				],
				"metallicFactor":0.1347150057554245,
				"roughnessFactor":0.5
			}
		},
		{
			"doubleSided":true,
			"name":"Base-blue",
			"pbrMetallicRoughness":{
				"baseColorFactor":[
					0.5089660286903381,
					0.7453719973564148,
					0.9910299777984619,
					1
				],
				"metallicFactor":0.2642489969730377,
				"roughnessFactor":0.5
			}
		},
		{
			"doubleSided":true,
			"name":"buttons-blue",
			"pbrMetallicRoughness":{
				"baseColorFactor":[
					0.7992380261421204,
					0.2917580008506775,
					0.5270770192146301,
					1
				],
				"metallicFactor":0.5077720284461975,
				"roughnessFactor":0.5
			}
		},
		{
			"doubleSided":true,
			"name":"screen",
			"pbrMetallicRoughness":{
				"baseColorFactor":[
					0.048629000782966614,
					0.048629000782966614,
					0.048629000782966614,
					1
				],
				"metallicFactor":0,
				"roughnessFactor":0.5
			}
		},
		{
			"doubleSided":true,
			"name":"buchseiten.003",
			"pbrMetallicRoughness":{
				"baseColorFactor":[
					0.9241660237312317,
					0.9241660237312317,
					0.9241660237312317,
					1
				],
				"metallicFactor":0,
				"roughnessFactor":0.5
			}
		},
		{
			"doubleSided":true,
			"name":"buch.003",
			"pbrMetallicRoughness":{
				"baseColorFactor":[
					0.17467600107192993,
					0.5394560098648071,
					0.9999269843101501,
					1
				],
				"metallicFactor":0,
				"roughnessFactor":0.5
			}
		},
		{
			"doubleSided":true,
			"name":"tisch.002",
			"pbrMetallicRoughness":{
				"baseColorFactor":[
					0.8518310189247131,
					0.8518310189247131,
					0.8518310189247131,
					1
				],
				"metallicFactor":0,
				"roughnessFactor":0.5
			}
		},
		{
			"doubleSided":true,
			"name":"pflanze.003",
			"pbrMetallicRoughness":{
				"baseColorFactor":[
					0.08055700361728668,
					0.27661600708961487,
					0.07725600153207779,
					1
				],
				"metallicFactor":0,
				"roughnessFactor":0.5
			}
		},
		{
			"doubleSided":true,
			"name":"topf.004",
			"pbrMetallicRoughness":{
				"baseColorFactor":[
					0.5089660286903381,
					0.7453719973564148,
					0.9910299777984619,
					1
				],
				"metallicFactor":0,
				"roughnessFactor":0.5829015374183655
			}
		},
		{
			"doubleSided":true,
			"name":"erde.004",
			"pbrMetallicRoughness":{
				"baseColorFactor":[
					0.11236800253391266,
					0.04642700031399727,
					0.01627499982714653,
					1
				],
				"metallicFactor":0,
				"roughnessFactor":0.5
			}
		},
		{
			"doubleSided":true,
			"name":"lamp.001",
			"pbrMetallicRoughness":{
				"baseColorFactor":[
					0.17467600107192993,
					0.5394560098648071,
					0.9999269843101501,
					1
				],
				"metallicFactor":0,
				"roughnessFactor":0.5
			}
		},
		{
			"doubleSided":true,
			"name":"gl\u00fchbrine.005",
			"pbrMetallicRoughness":{
				"baseColorFactor":[
					0.800000011920929,
					0.800000011920929,
					0.800000011920929,
					1
				],
				"metallicFactor":0,
				"roughnessFactor":0.5
			}
		},
		{
			"doubleSided":true,
			"name":"metall.012",
			"pbrMetallicRoughness":{
				"baseColorFactor":[
					0.5866280198097229,
					0.5866280198097229,
					0.5866280198097229,
					1
				],
				"roughnessFactor":0.5
			}
		}
	],
	"meshes":[
		{
			"name":"Cube.002",
			"primitives":[
				{
					"attributes":{
						"POSITION":0,
						"NORMAL":1,
						"TEXCOORD_0":2
					},
					"indices":3,
					"material":0
				},
				{
					"attributes":{
						"POSITION":4,
						"NORMAL":5,
						"TEXCOORD_0":6
					},
					"indices":7,
					"material":1
				},
				{
					"attributes":{
						"POSITION":8,
						"NORMAL":9,
						"TEXCOORD_0":10
					},
					"indices":11,
					"material":2
				},
				{
					"attributes":{
						"POSITION":12,
						"NORMAL":13,
						"TEXCOORD_0":14
					},
					"indices":15,
					"material":3
				},
				{
					"attributes":{
						"POSITION":16,
						"NORMAL":17,
						"TEXCOORD_0":18
					},
					"indices":19,
					"material":4
				},
				{
					"attributes":{
						"POSITION":20,
						"NORMAL":21,
						"TEXCOORD_0":22
					},
					"indices":23,
					"material":5
				},
				{
					"attributes":{
						"POSITION":24,
						"NORMAL":25,
						"TEXCOORD_0":26
					},
					"indices":27,
					"material":6
				},
				{
					"attributes":{
						"POSITION":28,
						"NORMAL":29,
						"TEXCOORD_0":30
					},
					"indices":31,
					"material":7
				},
				{
					"attributes":{
						"POSITION":32,
						"NORMAL":33,
						"TEXCOORD_0":34
					},
					"indices":35,
					"material":8
				},
				{
					"attributes":{
						"POSITION":36,
						"NORMAL":37,
						"TEXCOORD_0":38
					},
					"indices":39,
					"material":9
				},
				{
					"attributes":{
						"POSITION":40,
						"NORMAL":41,
						"TEXCOORD_0":42
					},
					"indices":43,
					"material":10
				},
				{
					"attributes":{
						"POSITION":44,
						"NORMAL":45,
						"TEXCOORD_0":46
					},
					"indices":47,
					"material":11
				},
				{
					"attributes":{
						"POSITION":48,
						"NORMAL":49,
						"TEXCOORD_0":50
					},
					"indices":51,
					"material":12
				}
			]
		}
	],
	"accessors":[
		{
			"bufferView":0,
			"componentType":5126,
			"count":156,
			"max":[
				0.21892979741096497,
				0.05063661187887192,
				-0.5398842692375183
			],
			"min":[
				0.01231984980404377,
				-0.6486842632293701,
				-0.8480323553085327
			],
			"type":"VEC3"
		},
		{
			"bufferView":1,
			"componentType":5126,
			"count":156,
			"type":"VEC3"
		},
		{
			"bufferView":2,
			"componentType":5126,
			"count":156,
			"type":"VEC2"
		},
		{
			"bufferView":3,
			"componentType":5123,
			"count":288,
			"type":"SCALAR"
		},
		{
			"bufferView":4,
			"componentType":5126,
			"count":2276,
			"max":[
				0.21636277437210083,
				0.12048158794641495,
				-0.540482223033905
			],
			"min":[
				-0.3484940826892853,
				-0.6509692668914795,
				-0.9223863482475281
			],
			"type":"VEC3"
		},
		{
			"bufferView":5,
			"componentType":5126,
			"count":2276,
			"type":"VEC3"
		},
		{
			"bufferView":6,
			"componentType":5126,
			"count":2276,
			"type":"VEC2"
		},
		{
			"bufferView":7,
			"componentType":5123,
			"count":3516,
			"type":"SCALAR"
		},
		{
			"bufferView":8,
			"componentType":5126,
			"count":68,
			"max":[
				0.2156737744808197,
				-0.07425437122583389,
				-0.5535282492637634
			],
			"min":[
				0.0177768487483263,
				-0.5853282809257507,
				-0.8446353673934937
			],
			"type":"VEC3"
		},
		{
			"bufferView":9,
			"componentType":5126,
			"count":68,
			"type":"VEC3"
		},
		{
			"bufferView":10,
			"componentType":5126,
			"count":68,
			"type":"VEC2"
		},
		{
			"bufferView":11,
			"componentType":5123,
			"count":102,
			"type":"SCALAR"
		},
		{
			"bufferView":12,
			"componentType":5126,
			"count":8,
			"max":[
				-0.12708812952041626,
				0.09406660497188568,
				-0.6118772625923157
			],
			"min":[
				-0.13424313068389893,
				-0.3452812731266022,
				-0.9073853492736816
			],
			"type":"VEC3"
		},
		{
			"bufferView":13,
			"componentType":5126,
			"count":8,
			"type":"VEC3"
		},
		{
			"bufferView":14,
			"componentType":5126,
			"count":8,
			"type":"VEC2"
		},
		{
			"bufferView":15,
			"componentType":5123,
			"count":12,
			"type":"SCALAR"
		},
		{
			"bufferView":16,
			"componentType":5126,
			"count":160,
			"max":[
				0.34407904744148254,
				0.8182259202003479,
				-0.2727845013141632
			],
			"min":[
				0.23307007551193237,
				0.4042973220348358,
				-0.4463157653808594
			],
			"type":"VEC3"
		},
		{
			"bufferView":17,
			"componentType":5126,
			"count":160,
			"type":"VEC3"
		},
		{
			"bufferView":18,
			"componentType":5126,
			"count":160,
			"type":"VEC2"
		},
		{
			"bufferView":19,
			"componentType":5123,
			"count":288,
			"type":"SCALAR"
		},
		{
			"bufferView":20,
			"componentType":5126,
			"count":848,
			"max":[
				0.35078248381614685,
				0.8204028010368347,
				-0.2727845013141632
			],
			"min":[
				0.22267064452171326,
				0.40196630358695984,
				-0.4463157653808594
			],
			"type":"VEC3"
		},
		{
			"bufferView":21,
			"componentType":5126,
			"count":848,
			"type":"VEC3"
		},
		{
			"bufferView":22,
			"componentType":5126,
			"count":848,
			"type":"VEC2"
		},
		{
			"bufferView":23,
			"componentType":5123,
			"count":1920,
			"type":"SCALAR"
		},
		{
			"bufferView":24,
			"componentType":5126,
			"count":140,
			"max":[
				0.41658130288124084,
				0.8931605219841003,
				-0.00274198898114264
			],
			"min":[
				-0.38424286246299744,
				-0.8941362500190735,
				-0.5405253171920776
			],
			"type":"VEC3"
		},
		{
			"bufferView":25,
			"componentType":5126,
			"count":140,
			"type":"VEC3"
		},
		{
			"bufferView":26,
			"componentType":5126,
			"count":140,
			"type":"VEC2"
		},
		{
			"bufferView":27,
			"componentType":5123,
			"count":276,
			"type":"SCALAR"
		},
		{
			"bufferView":28,
			"componentType":5126,
			"count":1792,
			"max":[
				-0.0865042507648468,
				0.8266008496284485,
				-0.5968399047851562
			],
			"min":[
				-0.3155779540538788,
				0.5847813487052917,
				-0.6932528614997864
			],
			"type":"VEC3"
		},
		{
			"bufferView":29,
			"componentType":5126,
			"count":1792,
			"type":"VEC3"
		},
		{
			"bufferView":30,
			"componentType":5126,
			"count":1792,
			"type":"VEC2"
		},
		{
			"bufferView":31,
			"componentType":5123,
			"count":3456,
			"type":"SCALAR"
		},
		{
			"bufferView":32,
			"componentType":5126,
			"count":385,
			"max":[
				-0.11606895178556442,
				0.7900876402854919,
				-0.5430999398231506
			],
			"min":[
				-0.2791450619697571,
				0.6270114779472351,
				-0.6522455215454102
			],
			"type":"VEC3"
		},
		{
			"bufferView":33,
			"componentType":5126,
			"count":385,
			"type":"VEC3"
		},
		{
			"bufferView":34,
			"componentType":5126,
			"count":385,
			"type":"VEC2"
		},
		{
			"bufferView":35,
			"componentType":5123,
			"count":1248,
			"type":"SCALAR"
		},
		{
			"bufferView":36,
			"componentType":5126,
			"count":224,
			"max":[
				-0.1247076615691185,
				0.7814489006996155,
				-0.544677197933197
			],
			"min":[
				-0.2705063223838806,
				0.6356502175331116,
				-0.6471765041351318
			],
			"type":"VEC3"
		},
		{
			"bufferView":37,
			"componentType":5126,
			"count":224,
			"type":"VEC3"
		},
		{
			"bufferView":38,
			"componentType":5126,
			"count":224,
			"type":"VEC2"
		},
		{
			"bufferView":39,
			"componentType":5123,
			"count":462,
			"type":"SCALAR"
		},
		{
			"bufferView":40,
			"componentType":5126,
			"count":931,
			"max":[
				-0.06291987746953964,
				0.46906575560569763,
				-0.5404687523841858
			],
			"min":[
				-0.27634570002555847,
				0.2100142240524292,
				-0.9605026245117188
			],
			"type":"VEC3"
		},
		{
			"bufferView":41,
			"componentType":5126,
			"count":931,
			"type":"VEC3"
		},
		{
			"bufferView":42,
			"componentType":5126,
			"count":931,
			"type":"VEC2"
		},
		{
			"bufferView":43,
			"componentType":5123,
			"count":4083,
			"type":"SCALAR"
		},
		{
			"bufferView":44,
			"componentType":5126,
			"count":559,
			"max":[
				-0.1263713538646698,
				0.33290067315101624,
				-0.8604525923728943
			],
			"min":[
				-0.1764209270477295,
				0.28285107016563416,
				-0.910605788230896
			],
			"type":"VEC3"
		},
		{
			"bufferView":45,
			"componentType":5126,
			"count":559,
			"type":"VEC3"
		},
		{
			"bufferView":46,
			"componentType":5126,
			"count":559,
			"type":"VEC2"
		},
		{
			"bufferView":47,
			"componentType":5123,
			"count":2880,
			"type":"SCALAR"
		},
		{
			"bufferView":48,
			"componentType":5126,
			"count":379,
			"max":[
				-0.13232702016830444,
				0.36874446272850037,
				-0.5628417134284973
			],
			"min":[
				-0.19351410865783691,
				0.29453739523887634,
				-0.9605026245117188
			],
			"type":"VEC3"
		},
		{
			"bufferView":49,
			"componentType":5126,
			"count":379,
			"type":"VEC3"
		},
		{
			"bufferView":50,
			"componentType":5126,
			"count":379,
			"type":"VEC2"
		},
		{
			"bufferView":51,
			"componentType":5123,
			"count":1089,
			"type":"SCALAR"
		}
	],
	"bufferViews":[
		{
			"buffer":0,
			"byteLength":1872,
			"byteOffset":0,
			"target":34962
		},
		{
			"buffer":0,
			"byteLength":1872,
			"byteOffset":1872,
			"target":34962
		},
		{
			"buffer":0,
			"byteLength":1248,
			"byteOffset":3744,
			"target":34962
		},
		{
			"buffer":0,
			"byteLength":576,
			"byteOffset":4992,
			"target":34963
		},
		{
			"buffer":0,
			"byteLength":27312,
			"byteOffset":5568,
			"target":34962
		},
		{
			"buffer":0,
			"byteLength":27312,
			"byteOffset":32880,
			"target":34962
		},
		{
			"buffer":0,
			"byteLength":18208,
			"byteOffset":60192,
			"target":34962
		},
		{
			"buffer":0,
			"byteLength":7032,
			"byteOffset":78400,
			"target":34963
		},
		{
			"buffer":0,
			"byteLength":816,
			"byteOffset":85432,
			"target":34962
		},
		{
			"buffer":0,
			"byteLength":816,
			"byteOffset":86248,
			"target":34962
		},
		{
			"buffer":0,
			"byteLength":544,
			"byteOffset":87064,
			"target":34962
		},
		{
			"buffer":0,
			"byteLength":204,
			"byteOffset":87608,
			"target":34963
		},
		{
			"buffer":0,
			"byteLength":96,
			"byteOffset":87812,
			"target":34962
		},
		{
			"buffer":0,
			"byteLength":96,
			"byteOffset":87908,
			"target":34962
		},
		{
			"buffer":0,
			"byteLength":64,
			"byteOffset":88004,
			"target":34962
		},
		{
			"buffer":0,
			"byteLength":24,
			"byteOffset":88068,
			"target":34963
		},
		{
			"buffer":0,
			"byteLength":1920,
			"byteOffset":88092,
			"target":34962
		},
		{
			"buffer":0,
			"byteLength":1920,
			"byteOffset":90012,
			"target":34962
		},
		{
			"buffer":0,
			"byteLength":1280,
			"byteOffset":91932,
			"target":34962
		},
		{
			"buffer":0,
			"byteLength":576,
			"byteOffset":93212,
			"target":34963
		},
		{
			"buffer":0,
			"byteLength":10176,
			"byteOffset":93788,
			"target":34962
		},
		{
			"buffer":0,
			"byteLength":10176,
			"byteOffset":103964,
			"target":34962
		},
		{
			"buffer":0,
			"byteLength":6784,
			"byteOffset":114140,
			"target":34962
		},
		{
			"buffer":0,
			"byteLength":3840,
			"byteOffset":120924,
			"target":34963
		},
		{
			"buffer":0,
			"byteLength":1680,
			"byteOffset":124764,
			"target":34962
		},
		{
			"buffer":0,
			"byteLength":1680,
			"byteOffset":126444,
			"target":34962
		},
		{
			"buffer":0,
			"byteLength":1120,
			"byteOffset":128124,
			"target":34962
		},
		{
			"buffer":0,
			"byteLength":552,
			"byteOffset":129244,
			"target":34963
		},
		{
			"buffer":0,
			"byteLength":21504,
			"byteOffset":129796,
			"target":34962
		},
		{
			"buffer":0,
			"byteLength":21504,
			"byteOffset":151300,
			"target":34962
		},
		{
			"buffer":0,
			"byteLength":14336,
			"byteOffset":172804,
			"target":34962
		},
		{
			"buffer":0,
			"byteLength":6912,
			"byteOffset":187140,
			"target":34963
		},
		{
			"buffer":0,
			"byteLength":4620,
			"byteOffset":194052,
			"target":34962
		},
		{
			"buffer":0,
			"byteLength":4620,
			"byteOffset":198672,
			"target":34962
		},
		{
			"buffer":0,
			"byteLength":3080,
			"byteOffset":203292,
			"target":34962
		},
		{
			"buffer":0,
			"byteLength":2496,
			"byteOffset":206372,
			"target":34963
		},
		{
			"buffer":0,
			"byteLength":2688,
			"byteOffset":208868,
			"target":34962
		},
		{
			"buffer":0,
			"byteLength":2688,
			"byteOffset":211556,
			"target":34962
		},
		{
			"buffer":0,
			"byteLength":1792,
			"byteOffset":214244,
			"target":34962
		},
		{
			"buffer":0,
			"byteLength":924,
			"byteOffset":216036,
			"target":34963
		},
		{
			"buffer":0,
			"byteLength":11172,
			"byteOffset":216960,
			"target":34962
		},
		{
			"buffer":0,
			"byteLength":11172,
			"byteOffset":228132,
			"target":34962
		},
		{
			"buffer":0,
			"byteLength":7448,
			"byteOffset":239304,
			"target":34962
		},
		{
			"buffer":0,
			"byteLength":8166,
			"byteOffset":246752,
			"target":34963
		},
		{
			"buffer":0,
			"byteLength":6708,
			"byteOffset":254920,
			"target":34962
		},
		{
			"buffer":0,
			"byteLength":6708,
			"byteOffset":261628,
			"target":34962
		},
		{
			"buffer":0,
			"byteLength":4472,
			"byteOffset":268336,
			"target":34962
		},
		{
			"buffer":0,
			"byteLength":5760,
			"byteOffset":272808,
			"target":34963
		},
		{
			"buffer":0,
			"byteLength":4548,
			"byteOffset":278568,
			"target":34962
		},
		{
			"buffer":0,
			"byteLength":4548,
			"byteOffset":283116,
			"target":34962
		},
		{
			"buffer":0,
			"byteLength":3032,
			"byteOffset":287664,
			"target":34962
		},
		{
			"buffer":0,
			"byteLength":2178,
			"byteOffset":290696,
			"target":34963
		}
	],
	"buffers":[
		{
			"byteLength":292876,
			"uri":"scene.bin"
		}
	]
}
