<?xml version="1.0" encoding="UTF-8"?>
<svg id="Ebene_2" data-name="Ebene 2" xmlns="http://www.w3.org/2000/svg" viewBox="0 0 671 670">
  <defs>
    <style>
      .cls-1 {
        fill: #d9d9d9;
      }
    </style>
  </defs>
  <g id="Ebene_1" data-name="Ebene 1">
    <path class="cls-1" d="M335.5,0C150.21,0,0,149.98,0,335s150.21,335,335.5,335,335.5-149.98,335.5-335S520.79,0,335.5,0ZM385,565c0,16.57-13.43,30-30,30h-39c-16.57,0-30-13.43-30-30v-203c0-16.57,13.43-30,30-30h39c16.57,0,30,13.43,30,30v203ZM336.5,312c-13.21-116.94-23.91-128.16-135.5-142,111.59-13.84,122.29-25.06,135.5-142,13.2,116.94,23.91,128.16,135.5,142-111.59,13.84-122.29,25.06-135.5,142Z"/>
  </g>
</svg>