<svg width="2280" height="2196" viewBox="0 0 2280 2196" fill="none" xmlns="http://www.w3.org/2000/svg">
<path d="M1152.84 1668.23C1493.96 1666.43 1769.09 1398.75 1767.36 1070.34C1765.63 741.938 1487.7 477.166 1146.59 478.96C805.468 480.754 530.337 748.435 532.065 1076.84C533.792 1405.25 811.723 1670.02 1152.84 1668.23Z" stroke="#D9D6DF" stroke-width="10" stroke-miterlimit="10"/>
<path d="M1423.69 1096.17C1189.96 1124.05 1167.63 1145.78 1141.14 1371.07C1112.27 1146.07 1089.71 1124.57 855.704 1099.16C1089.43 1071.28 1111.77 1049.55 1138.26 824.254C1167.12 1049.26 1189.68 1070.75 1423.69 1096.17Z" stroke="#D9D6DF" stroke-width="5" stroke-miterlimit="10"/>
<path d="M1768.13 1001.42C1768.39 994.221 1768.39 987.003 1768.06 979.848C1767.03 955.007 1762.95 930.424 1756.34 906.501C1742.75 858.739 1721.8 812.673 1694.74 769.975C1691.27 764.696 1687.82 759.377 1684.28 754.139L1673.11 738.732L1670.3 734.885L1667.34 731.14L1661.42 723.671L1655.46 716.242C1653.43 713.786 1651.3 711.412 1649.21 709.017C1632.72 689.594 1614.49 671.575 1595.45 654.491L1581 641.87L1566.03 629.819C1563.52 627.83 1561.07 625.781 1558.5 623.854L1550.76 618.133C1545.58 614.359 1540.52 610.443 1535.23 606.792C1524.52 599.691 1514.15 592.144 1503.09 585.571C1497.61 582.223 1492.22 578.714 1486.7 575.427L1469.91 565.912C1380.38 515.112 1278.78 483.582 1172.57 475.912C1119.48 472.007 1065.21 474.496 1011.27 484.241C984.332 489.174 957.467 495.886 931.096 504.718C904.682 513.449 878.72 524.241 853.651 537.089C841.064 543.443 828.837 550.522 816.737 557.824L807.758 563.411C804.786 565.306 801.919 567.242 798.989 569.178C793.087 572.99 787.481 577.043 781.769 581.035C759.132 597.166 737.952 614.745 717.659 633.432C697.409 652.138 678.215 672.133 660.311 693.677C642.385 715.222 625.686 738.277 610.593 763.324C595.626 788.472 582.414 815.754 572.261 845.871C567.386 861.1 563.016 876.771 560.206 893.525L559.126 899.778L558.597 902.915L558.194 906.131L557.471 912.483C555.76 918.598 554.154 924.752 552.633 930.947C549.818 942.688 547.423 954.527 545.302 966.467C541.081 990.345 538.373 1014.62 537.179 1039.09C534.665 1088.03 538.308 1137.86 548.395 1187.2C558.503 1236.5 575.328 1285.24 598.629 1331.49C601.599 1337.24 604.465 1343.07 607.582 1348.77C610.678 1354.5 613.921 1360.12 617.184 1365.72C623.753 1376.89 630.656 1387.83 637.811 1398.63C652.12 1420.23 667.769 1441.01 684.549 1461.16C718.192 1501.35 756.86 1538.71 801.068 1571.23C823.119 1587.55 846.613 1602.53 871.441 1615.81L876.054 1618.35L880.77 1620.75L890.266 1625.49C893.445 1627.05 896.583 1628.67 899.804 1630.19L909.55 1634.55C922.496 1640.51 935.941 1645.55 949.407 1650.59C976.548 1660.3 1004.71 1667.87 1033.4 1673.4L1055.03 1677.15C1062.26 1678.16 1069.53 1678.99 1076.82 1679.89C1080.46 1680.29 1084.11 1680.84 1087.75 1681.1L1098.69 1681.89L1109.66 1682.64C1113.31 1682.89 1116.99 1683.19 1120.64 1683.19C1179.22 1685.25 1238.93 1678.31 1295.9 1662.72C1352.98 1647.3 1407.1 1623.46 1456.74 1593.76C1481.56 1578.85 1505.29 1562.46 1527.94 1544.57C1539.27 1535.61 1550.35 1526.33 1561.22 1516.55C1572.13 1506.75 1582.64 1496.54 1593.42 1485.11C1599.08 1479.05 1603.71 1473.79 1608.58 1468.21C1613.38 1462.66 1618.03 1457.06 1622.62 1451.39C1631.76 1440.08 1640.43 1428.51 1648.71 1416.78C1665.28 1393.33 1679.98 1368.99 1693.33 1344.09C1719.97 1294.24 1740.69 1241.97 1755.01 1186.17C1762.13 1158.22 1767.65 1129.36 1770.43 1098.59C1771.8 1083.18 1772.6 1067.37 1772.3 1050.67C1772.01 1035.1 1770.89 1018.89 1768.11 1001.46L1768.13 1001.42ZM1647.67 833.017C1628.9 824.908 1608.4 820.022 1589.62 818.321C1570.79 816.54 1553.58 817.561 1539.2 819.698C1535.34 820.204 1532.09 820.828 1528.65 821.472C1525.27 822.117 1521.75 822.803 1518.77 823.546C1515.67 824.29 1512.58 825.054 1509.5 825.839L1501.03 828.289C1498.12 829.134 1495.58 829.996 1493.02 830.859C1490.48 831.721 1487.78 832.625 1485.39 833.507C1480.68 835.27 1475.75 837.116 1471.52 838.917L1464.98 841.661L1458.84 844.402L1455.78 845.793L1452.89 847.163L1447.15 849.902C1432.18 857.198 1419.24 864.322 1407.01 871.26C1382.76 885.156 1361.6 898.287 1341.21 910.605C1320.93 922.923 1301.52 934.509 1282.47 945.102C1263.44 955.775 1244.74 965.457 1226.22 974.146C1209.31 982.079 1192.57 989.142 1175.91 995.356C1209.22 1064.89 1272.07 1079.72 1423.65 1096.17C1231.43 1119.1 1182.2 1137.87 1156.03 1269.12C1163.73 1267.69 1171.37 1266.13 1178.98 1264.45C1238.53 1251.16 1294.66 1230.04 1345.68 1205.13C1371.21 1192.68 1395.61 1179.33 1418.89 1165.72C1442.19 1152.09 1464.29 1138.15 1485.35 1124.7C1496.82 1117.34 1507.95 1110.1 1518.6 1103.29C1517.52 1113.63 1515.96 1124.29 1513.92 1135.06C1510.45 1153.41 1505.63 1172.1 1499.7 1190.59C1493.81 1209.08 1486.92 1227.47 1478.93 1245.3C1471 1263.16 1461.91 1280.45 1452.17 1297.06C1447.28 1305.35 1442.16 1313.47 1436.8 1321.3C1434.11 1325.22 1431.4 1329.09 1428.61 1332.89C1425.86 1336.62 1422.83 1340.64 1420.5 1343.6C1415.28 1350.18 1409 1357.35 1402.53 1364.34C1396.01 1371.35 1389.1 1378.26 1381.95 1384.99C1367.7 1398.51 1352.31 1411.06 1336.43 1422.83C1304.57 1446.33 1269.86 1465.5 1233.37 1479.74C1160.67 1508.1 1077.78 1515.43 998.418 1498.26C988.535 1495.89 978.528 1493.66 968.704 1490.55L961.28 1488.41C958.819 1487.63 956.379 1486.76 953.917 1485.94L946.533 1483.45L942.831 1482.2L939.19 1480.78C919.602 1473.63 900.403 1464.73 881.514 1454.74C843.777 1434.66 807.609 1409.46 774.004 1380.48C765.545 1373.29 757.358 1365.75 749.232 1358.09C741.233 1350.35 733.254 1342.49 725.567 1334.38C717.86 1326.29 710.319 1318.03 703.093 1309.57C699.501 1305.35 695.929 1301.1 692.463 1296.79C688.954 1292.5 685.655 1288.07 682.23 1283.7C668.802 1266.04 656.399 1247.51 645.042 1228.22C633.747 1208.91 623.478 1188.83 614.465 1168.07C598.013 1130.39 585.434 1090.53 576.797 1049.33C577.902 1051.83 579.007 1054.32 580.133 1056.82L583.213 1063.49C584.254 1065.71 585.483 1067.81 586.628 1069.96C588.96 1074.24 591.356 1078.51 593.793 1082.76C596.293 1086.94 599.002 1090.92 601.669 1094.99L605.733 1101.04C607.088 1103.05 608.588 1104.88 610.026 1106.82C612.923 1110.62 615.862 1114.41 618.843 1118.17C621.865 1121.84 625.012 1125.3 628.139 1128.84L632.892 1134.09C634.497 1135.82 636.143 1137.39 637.769 1139.04L647.69 1148.75C651.045 1151.83 654.462 1154.78 657.88 1157.78L663.027 1162.24C664.757 1163.66 666.486 1165.01 668.236 1166.4L678.737 1174.59C682.258 1177.16 685.799 1179.63 689.382 1182.11L694.735 1185.83L700.108 1189.28L710.917 1196.09L721.744 1202.36L727.178 1205.47L732.611 1208.35L743.519 1214.06L754.424 1219.25L759.898 1221.83L765.349 1224.23L776.273 1228.97C790.794 1234.89 805.334 1240.46 819.827 1245.09C834.321 1249.79 848.791 1254.08 863.216 1257.72C877.662 1261.39 892.106 1264.61 906.547 1267.38C921.01 1270.17 935.47 1272.57 950.159 1274.47C957.514 1275.42 964.89 1276.31 972.475 1277.06C976.236 1277.45 980.101 1277.81 983.988 1278.11L995.5 1278.92C1010.81 1279.97 1026.25 1280.26 1041.66 1280.26C1057.1 1280.01 1072.55 1279.51 1087.92 1278.17C1100.7 1277.2 1113.42 1275.75 1126.07 1273.99C1098.71 1138.74 1050.42 1120.29 855.683 1099.14C987.962 1083.36 1052.5 1069.53 1088.45 1019.69C1079.68 1021.28 1070.91 1022.57 1062.11 1023.61C1053 1024.77 1043.85 1025.43 1034.68 1026.04C1025.48 1026.43 1016.29 1026.82 1007 1026.67C989.092 1026.81 968.797 1025.11 949.214 1022.97C939.381 1021.87 929.671 1020.41 920.108 1018.82C910.503 1017.31 901.211 1015.4 892.087 1013.37C855.589 1005.41 824.044 992.759 804.068 979.723C794.435 973.001 786.865 966.975 781.662 960.007C781.007 959.121 780.225 958.276 779.528 957.411C778.998 956.504 778.426 955.637 777.792 954.751C777.495 954.308 777.094 953.906 776.84 953.422L776.097 951.95C775.609 950.962 774.911 950.035 774.443 948.987C773.676 946.787 772.363 944.752 771.699 942.228L771.038 940.412C770.804 939.807 770.549 939.202 770.44 938.515C770.139 937.182 769.796 935.829 769.432 934.477C768.963 933.185 768.934 931.609 768.632 930.154L768.243 927.933L768.027 926.822L767.937 925.629C767.823 924.033 767.647 922.437 767.47 920.82L767.317 919.608L767.31 918.334L767.255 915.747C766.883 908.915 767.62 901.33 768.44 893.522C770.583 877.721 775.049 860.513 781.425 842.951C787.968 825.388 796.421 807.553 806.304 789.972C816.144 772.352 827.54 755.047 840.094 738.382C852.627 721.738 866.276 705.634 880.856 690.738C884.532 687.06 888.166 683.28 891.949 679.763C893.83 677.994 895.689 676.164 897.591 674.416L903.338 669.25C911.094 662.498 918.997 655.946 927.344 649.797C943.952 637.397 961.764 626.163 980.612 616.239C999.502 606.415 1019.39 597.819 1040.1 590.796C1081.47 576.588 1125.93 568.227 1171.3 565.683C1216.66 563.241 1262.98 566.354 1308.35 575.172C1331.07 579.501 1353.51 585.347 1375.56 592.468C1397.6 599.57 1419.23 608.089 1439.78 618.555L1455.15 626.48C1460.19 629.263 1465.1 632.29 1470.05 635.216L1477.46 639.645C1479.97 641.088 1482.25 642.814 1484.65 644.399L1498.85 654.109C1503.51 657.461 1507.94 661.077 1512.5 664.55L1519.28 669.791C1521.54 671.538 1523.61 673.509 1525.8 675.357L1538.71 686.591L1550.98 698.495C1553 700.506 1555.11 702.395 1557.06 704.488L1562.89 710.704L1568.71 716.921C1570.68 718.972 1572.6 721.045 1574.42 723.239L1585.47 736.16C1587.37 738.273 1589 740.589 1590.77 742.784L1596.04 749.448C1609.82 767.389 1622.96 785.819 1634.8 805.104C1641.01 815.059 1647 825.156 1652.81 835.376C1651.11 834.576 1649.38 833.756 1647.65 832.997L1647.67 833.017ZM1516.37 1038.65C1515.25 1036.76 1514.8 1035.58 1514.72 1035.12C1514.65 1034.51 1514.97 1035.14 1515.46 1036.19C1515.73 1036.77 1516.05 1037.62 1516.37 1038.65Z" fill="#D9D6DF"/>
</svg>
