<?xml version="1.0" encoding="UTF-8"?>
<svg id="Ebene_3" data-name="Ebene 3" xmlns="http://www.w3.org/2000/svg" viewBox="0 0 758.83 775.33">
  <defs>
    <style>
      .cls-1 {
        fill: none;
        stroke: #d9d6df;
        stroke-miterlimit: 10;
      }

      .cls-2 {
        fill: #d9d6df;
      }
    </style>
  </defs>
  <path class="cls-2" d="M746.62,240.55c-11.45-11.45-28.28-11.72-28.28-11.72h-434.21c-25.54,0-62.46-73.33-89.13-77.5H8.33l-4.17,138.14v395.19s17.91,40,40,40h674.17c22.09,0,40-17.91,40-40v-415.83s-4.48-21.05-11.72-28.28ZM174.58,660.37c-12.01-90.13-21.74-98.78-123.22-109.45,101.48-10.67,111.21-19.31,123.22-109.45,12.01,90.13,21.74,98.78,123.22,109.45-101.48,10.67-111.21,19.31-123.22,109.45Z"/>
  <path class="cls-1" d="M746.62,240.55c-11.45-11.45-28.28-11.72-28.28-11.72h-434.21c-25.54,0-62.46-73.33-89.13-77.5H8.33l-4.17,138.14v395.19s17.91,40,40,40h674.17c22.09,0,40-17.91,40-40v-415.83s-4.48-21.05-11.72-28.28ZM174.58,660.37c-12.01-90.13-21.74-98.78-123.22-109.45,101.48-10.67,111.21-19.31,123.22-109.45,12.01,90.13,21.74,98.78,123.22,109.45-101.48,10.67-111.21,19.31-123.22,109.45Z"/>
</svg>