{
	"asset":{
		"generator":"Khronos glTF Blender I/O v4.5.47",
		"version":"2.0"
	},
	"scene":0,
	"scenes":[
		{
			"name":"Scene",
			"nodes":[
				0
			]
		}
	],
	"nodes":[
		{
			"mesh":0,
			"name":"chair2-pastelpink",
			"rotation":[
				0.5,
				0.5,
				-0.5,
				0.5000000596046448
			],
			"scale":[
				50,
				50,
				50
			]
		}
	],
	"materials":[
		{
			"doubleSided":true,
			"name":"chair2-pastelpink_chair",
			"pbrMetallicRoughness":{
				"baseColorFactor":[
					0.7992380261421204,
					0.2917580008506775,
					0.5270770192146301,
					1
				],
				"metallicFactor":0
			}
		},
		{
			"doubleSided":true,
			"name":"chair2-pastelpink_legs",
			"pbrMetallicRoughness":{
				"baseColorFactor":[
					0.274726003408432,
					0.27321499586105347,
					0.2507599890232086,
					1
				],
				"metallicFactor":0,
				"roughnessFactor":0.5
			}
		}
	],
	"meshes":[
		{
			"name":"Plane.020",
			"primitives":[
				{
					"attributes":{
						"POSITION":0,
						"NORMAL":1,
						"TEXCOORD_0":2
					},
					"indices":3,
					"material":0
				},
				{
					"attributes":{
						"POSITION":4,
						"NORMAL":5,
						"TEXCOORD_0":6
					},
					"indices":7,
					"material":1
				}
			]
		}
	],
	"accessors":[
		{
			"bufferView":0,
			"componentType":5126,
			"count":6361,
			"max":[
				1.10030198097229,
				0.9359660148620605,
				-0.4077470004558563
			],
			"min":[
				-1.091194987297058,
				-1.262181043624878,
				-3.7307610511779785
			],
			"type":"VEC3"
		},
		{
			"bufferView":1,
			"componentType":5126,
			"count":6361,
			"type":"VEC3"
		},
		{
			"bufferView":2,
			"componentType":5126,
			"count":6361,
			"type":"VEC2"
		},
		{
			"bufferView":3,
			"componentType":5123,
			"count":37482,
			"type":"SCALAR"
		},
		{
			"bufferView":4,
			"componentType":5126,
			"count":864,
			"max":[
				0.8846989870071411,
				0.8910530209541321,
				0.01726200059056282
			],
			"min":[
				-0.8846989870071411,
				-0.8910530209541321,
				-0.4366779923439026
			],
			"type":"VEC3"
		},
		{
			"bufferView":5,
			"componentType":5126,
			"count":864,
			"type":"VEC3"
		},
		{
			"bufferView":6,
			"componentType":5126,
			"count":864,
			"type":"VEC2"
		},
		{
			"bufferView":7,
			"componentType":5123,
			"count":1296,
			"type":"SCALAR"
		}
	],
	"bufferViews":[
		{
			"buffer":0,
			"byteLength":76332,
			"byteOffset":0,
			"target":34962
		},
		{
			"buffer":0,
			"byteLength":76332,
			"byteOffset":76332,
			"target":34962
		},
		{
			"buffer":0,
			"byteLength":50888,
			"byteOffset":152664,
			"target":34962
		},
		{
			"buffer":0,
			"byteLength":74964,
			"byteOffset":203552,
			"target":34963
		},
		{
			"buffer":0,
			"byteLength":10368,
			"byteOffset":278516,
			"target":34962
		},
		{
			"buffer":0,
			"byteLength":10368,
			"byteOffset":288884,
			"target":34962
		},
		{
			"buffer":0,
			"byteLength":6912,
			"byteOffset":299252,
			"target":34962
		},
		{
			"buffer":0,
			"byteLength":2592,
			"byteOffset":306164,
			"target":34963
		}
	],
	"buffers":[
		{
			"byteLength":308756,
			"uri":"scene.bin"
		}
	]
}
