{
	"asset":{
		"generator":"Khronos glTF Blender I/O v4.5.47",
		"version":"2.0"
	},
	"scene":0,
	"scenes":[
		{
			"name":"Scene",
			"nodes":[
				0
			]
		}
	],
	"nodes":[
		{
			"mesh":0,
			"name":"shelf2-nature",
			"rotation":[
				0,
				-0.70710688829422,
				0.7071066498756409,
				5.338508302088485e-08
			],
			"scale":[
				100,
				100,
				100
			]
		}
	],
	"materials":[
		{
			"doubleSided":true,
			"name":"buch2-nature",
			"pbrMetallicRoughness":{
				"baseColorFactor":[
					0.27472299337387085,
					0.3563849925994873,
					0.08649399876594543,
					1
				],
				"metallicFactor":0,
				"roughnessFactor":0.5
			}
		},
		{
			"doubleSided":true,
			"name":"buchseiten2-nature",
			"pbrMetallicRoughness":{
				"baseColorFactor":[
					0.9241660237312317,
					0.9241660237312317,
					0.9241660237312317,
					1
				],
				"metallicFactor":0,
				"roughnessFactor":0.5
			}
		},
		{
			"doubleSided":true,
			"name":"holz2-nature",
			"pbrMetallicRoughness":{
				"baseColorFactor":[
					0.9648489952087402,
					0.6307299733161926,
					0.2746579945087433,
					1
				],
				"metallicFactor":0,
				"roughnessFactor":0.7590673565864563
			}
		},
		{
			"doubleSided":true,
			"name":"pflanze2-nature",
			"pbrMetallicRoughness":{
				"baseColorFactor":[
					0.08055700361728668,
					0.27661600708961487,
					0.07725600153207779,
					1
				],
				"metallicFactor":0,
				"roughnessFactor":0.5
			}
		},
		{
			"doubleSided":true,
			"name":"topf2-nature",
			"pbrMetallicRoughness":{
				"baseColorFactor":[
					0.021222999319434166,
					0.0368879996240139,
					0.009132999926805496,
					1
				],
				"metallicFactor":0,
				"roughnessFactor":0.5829015374183655
			}
		},
		{
			"doubleSided":true,
			"name":"erde2-nature",
			"pbrMetallicRoughness":{
				"baseColorFactor":[
					0.11236800253391266,
					0.04642700031399727,
					0.01627499982714653,
					1
				],
				"metallicFactor":0,
				"roughnessFactor":0.5
			}
		}
	],
	"meshes":[
		{
			"name":"Plane.010",
			"primitives":[
				{
					"attributes":{
						"POSITION":0,
						"NORMAL":1,
						"TEXCOORD_0":2
					},
					"indices":3,
					"material":0
				},
				{
					"attributes":{
						"POSITION":4,
						"NORMAL":5,
						"TEXCOORD_0":6
					},
					"indices":7,
					"material":1
				},
				{
					"attributes":{
						"POSITION":8,
						"NORMAL":9,
						"TEXCOORD_0":10
					},
					"indices":11,
					"material":2
				},
				{
					"attributes":{
						"POSITION":12,
						"NORMAL":13,
						"TEXCOORD_0":14
					},
					"indices":15,
					"material":3
				},
				{
					"attributes":{
						"POSITION":16,
						"NORMAL":17,
						"TEXCOORD_0":18
					},
					"indices":19,
					"material":4
				},
				{
					"attributes":{
						"POSITION":20,
						"NORMAL":21,
						"TEXCOORD_0":22
					},
					"indices":23,
					"material":5
				}
			]
		}
	],
	"accessors":[
		{
			"bufferView":0,
			"componentType":5126,
			"count":3394,
			"max":[
				0.10749968886375427,
				0.8132295608520508,
				-0.04535412788391113
			],
			"min":[
				-0.06085330620408058,
				-0.8307454586029053,
				-0.6941360831260681
			],
			"type":"VEC3"
		},
		{
			"bufferView":1,
			"componentType":5126,
			"count":3394,
			"type":"VEC3"
		},
		{
			"bufferView":2,
			"componentType":5126,
			"count":3394,
			"type":"VEC2"
		},
		{
			"bufferView":3,
			"componentType":5123,
			"count":7680,
			"type":"SCALAR"
		},
		{
			"bufferView":4,
			"componentType":5126,
			"count":640,
			"max":[
				0.09852465987205505,
				0.8104515075683594,
				-0.04535412788391113
			],
			"min":[
				-0.04713231325149536,
				-0.8280295133590698,
				-0.6935810446739197
			],
			"type":"VEC3"
		},
		{
			"bufferView":5,
			"componentType":5126,
			"count":640,
			"type":"VEC3"
		},
		{
			"bufferView":6,
			"componentType":5126,
			"count":640,
			"type":"VEC2"
		},
		{
			"bufferView":7,
			"componentType":5123,
			"count":1152,
			"type":"SCALAR"
		},
		{
			"bufferView":8,
			"componentType":5126,
			"count":212,
			"max":[
				0.19892969727516174,
				0.8572474718093872,
				-0.0016731619834899902
			],
			"min":[
				-0.2267153114080429,
				-0.8556774854660034,
				-0.854498028755188
			],
			"type":"VEC3"
		},
		{
			"bufferView":9,
			"componentType":5126,
			"count":212,
			"type":"VEC3"
		},
		{
			"bufferView":10,
			"componentType":5126,
			"count":212,
			"type":"VEC2"
		},
		{
			"bufferView":11,
			"componentType":5123,
			"count":468,
			"type":"SCALAR"
		},
		{
			"bufferView":12,
			"componentType":5126,
			"count":1792,
			"max":[
				0.1520346701145172,
				0.8116085529327393,
				-0.5442830920219421
			],
			"min":[
				-0.18993231654167175,
				0.45062753558158875,
				-0.6882200837135315
			],
			"type":"VEC3"
		},
		{
			"bufferView":13,
			"componentType":5126,
			"count":1792,
			"type":"VEC3"
		},
		{
			"bufferView":14,
			"componentType":5126,
			"count":1792,
			"type":"VEC2"
		},
		{
			"bufferView":15,
			"componentType":5123,
			"count":3456,
			"type":"SCALAR"
		},
		{
			"bufferView":16,
			"componentType":5126,
			"count":393,
			"max":[
				0.10783770680427551,
				0.7571125030517578,
				-0.46405506134033203
			],
			"min":[
				-0.13562330603599548,
				0.5136505365371704,
				-0.6269990801811218
			],
			"type":"VEC3"
		},
		{
			"bufferView":17,
			"componentType":5126,
			"count":393,
			"type":"VEC3"
		},
		{
			"bufferView":18,
			"componentType":5126,
			"count":393,
			"type":"VEC2"
		},
		{
			"bufferView":19,
			"componentType":5123,
			"count":1248,
			"type":"SCALAR"
		},
		{
			"bufferView":20,
			"componentType":5126,
			"count":224,
			"max":[
				0.09494170546531677,
				0.7442154884338379,
				-0.4664110839366913
			],
			"min":[
				-0.12272730469703674,
				0.5265464782714844,
				-0.6194320917129517
			],
			"type":"VEC3"
		},
		{
			"bufferView":21,
			"componentType":5126,
			"count":224,
			"type":"VEC3"
		},
		{
			"bufferView":22,
			"componentType":5126,
			"count":224,
			"type":"VEC2"
		},
		{
			"bufferView":23,
			"componentType":5123,
			"count":462,
			"type":"SCALAR"
		}
	],
	"bufferViews":[
		{
			"buffer":0,
			"byteLength":40728,
			"byteOffset":0,
			"target":34962
		},
		{
			"buffer":0,
			"byteLength":40728,
			"byteOffset":40728,
			"target":34962
		},
		{
			"buffer":0,
			"byteLength":27152,
			"byteOffset":81456,
			"target":34962
		},
		{
			"buffer":0,
			"byteLength":15360,
			"byteOffset":108608,
			"target":34963
		},
		{
			"buffer":0,
			"byteLength":7680,
			"byteOffset":123968,
			"target":34962
		},
		{
			"buffer":0,
			"byteLength":7680,
			"byteOffset":131648,
			"target":34962
		},
		{
			"buffer":0,
			"byteLength":5120,
			"byteOffset":139328,
			"target":34962
		},
		{
			"buffer":0,
			"byteLength":2304,
			"byteOffset":144448,
			"target":34963
		},
		{
			"buffer":0,
			"byteLength":2544,
			"byteOffset":146752,
			"target":34962
		},
		{
			"buffer":0,
			"byteLength":2544,
			"byteOffset":149296,
			"target":34962
		},
		{
			"buffer":0,
			"byteLength":1696,
			"byteOffset":151840,
			"target":34962
		},
		{
			"buffer":0,
			"byteLength":936,
			"byteOffset":153536,
			"target":34963
		},
		{
			"buffer":0,
			"byteLength":21504,
			"byteOffset":154472,
			"target":34962
		},
		{
			"buffer":0,
			"byteLength":21504,
			"byteOffset":175976,
			"target":34962
		},
		{
			"buffer":0,
			"byteLength":14336,
			"byteOffset":197480,
			"target":34962
		},
		{
			"buffer":0,
			"byteLength":6912,
			"byteOffset":211816,
			"target":34963
		},
		{
			"buffer":0,
			"byteLength":4716,
			"byteOffset":218728,
			"target":34962
		},
		{
			"buffer":0,
			"byteLength":4716,
			"byteOffset":223444,
			"target":34962
		},
		{
			"buffer":0,
			"byteLength":3144,
			"byteOffset":228160,
			"target":34962
		},
		{
			"buffer":0,
			"byteLength":2496,
			"byteOffset":231304,
			"target":34963
		},
		{
			"buffer":0,
			"byteLength":2688,
			"byteOffset":233800,
			"target":34962
		},
		{
			"buffer":0,
			"byteLength":2688,
			"byteOffset":236488,
			"target":34962
		},
		{
			"buffer":0,
			"byteLength":1792,
			"byteOffset":239176,
			"target":34962
		},
		{
			"buffer":0,
			"byteLength":924,
			"byteOffset":240968,
			"target":34963
		}
	],
	"buffers":[
		{
			"byteLength":241892,
			"uri":"scene.bin"
		}
	]
}
